<svg id="visual" viewBox="0 0 900 600" width="900" height="600" xmlns="http://www.w3.org/2000/svg" xmlns:xlink="http://www.w3.org/1999/xlink" version="1.1"><g stroke-width="1" stroke-linejoin="bevel"><path d="M460 330L396 430L486 377Z" fill="#2a91c5" stroke="#2a91c5"></path><path d="M460 330L378 333L396 430Z" fill="#236d96" stroke="#236d96"></path><path d="M396 430L408 464L486 377Z" fill="#2da3dd" stroke="#2da3dd"></path><path d="M378 333L309 388L396 430Z" fill="#1a4c6a" stroke="#1a4c6a"></path><path d="M396 430L326 476L408 464Z" fill="#1a4c6a" stroke="#1a4c6a"></path><path d="M309 388L326 476L396 430Z" fill="#2a91c5" stroke="#2a91c5"></path><path d="M430 600L463 524L408 464Z" fill="#277fad" stroke="#277fad"></path><path d="M408 464L463 524L486 377Z" fill="#277fad" stroke="#277fad"></path><path d="M488 197L421 217L460 330Z" fill="#1f5c80" stroke="#1f5c80"></path><path d="M460 330L421 217L378 333Z" fill="#1a4c6a" stroke="#1a4c6a"></path><path d="M378 333L271 282L309 388Z" fill="#091f2e" stroke="#091f2e"></path><path d="M421 217L271 282L378 333Z" fill="#2da3dd" stroke="#2da3dd"></path><path d="M309 388L164 404L326 476Z" fill="#1a4c6a" stroke="#1a4c6a"></path><path d="M598 487L615 392L486 377Z" fill="#2da3dd" stroke="#2da3dd"></path><path d="M486 377L631 287L460 330Z" fill="#236d96" stroke="#236d96"></path><path d="M631 287L488 197L460 330Z" fill="#153c55" stroke="#153c55"></path><path d="M463 524L598 487L486 377Z" fill="#2da3dd" stroke="#2da3dd"></path><path d="M326 476L430 600L408 464Z" fill="#2eb6f5" stroke="#2eb6f5"></path><path d="M463 524L486 600L598 487Z" fill="#2eb6f5" stroke="#2eb6f5"></path><path d="M615 392L631 287L486 377Z" fill="#153c55" stroke="#153c55"></path><path d="M430 600L486 600L463 524Z" fill="#236d96" stroke="#236d96"></path><path d="M297 122L266 195L421 217Z" fill="#236d96" stroke="#236d96"></path><path d="M421 217L266 195L271 282Z" fill="#1a4c6a" stroke="#1a4c6a"></path><path d="M631 287L608 213L488 197Z" fill="#277fad" stroke="#277fad"></path><path d="M679 600L665 465L598 487Z" fill="#2a91c5" stroke="#2a91c5"></path><path d="M598 487L665 465L615 392Z" fill="#153c55" stroke="#153c55"></path><path d="M697 429L667 268L631 287Z" fill="#1a4c6a" stroke="#1a4c6a"></path><path d="M166 272L164 404L271 282Z" fill="#153c55" stroke="#153c55"></path><path d="M271 282L164 404L309 388Z" fill="#236d96" stroke="#236d96"></path><path d="M326 476L281 600L430 600Z" fill="#2a91c5" stroke="#2a91c5"></path><path d="M167 504L281 600L326 476Z" fill="#236d96" stroke="#236d96"></path><path d="M697 429L631 287L615 392Z" fill="#091f2e" stroke="#091f2e"></path><path d="M631 287L667 268L608 213Z" fill="#2eb6f5" stroke="#2eb6f5"></path><path d="M593 131L468 116L488 197Z" fill="#091f2e" stroke="#091f2e"></path><path d="M488 197L468 116L421 217Z" fill="#2da3dd" stroke="#2da3dd"></path><path d="M665 465L697 429L615 392Z" fill="#2eb6f5" stroke="#2eb6f5"></path><path d="M195 204L166 272L271 282Z" fill="#1f5c80" stroke="#1f5c80"></path><path d="M422 75L297 122L421 217Z" fill="#0f2d41" stroke="#0f2d41"></path><path d="M266 195L195 204L271 282Z" fill="#00101c" stroke="#00101c"></path><path d="M164 404L167 504L326 476Z" fill="#1a4c6a" stroke="#1a4c6a"></path><path d="M297 122L195 204L266 195Z" fill="#00101c" stroke="#00101c"></path><path d="M486 600L621 600L598 487Z" fill="#2eb6f5" stroke="#2eb6f5"></path><path d="M665 465L801 508L697 429Z" fill="#153c55" stroke="#153c55"></path><path d="M690 204L593 131L608 213Z" fill="#2da3dd" stroke="#2da3dd"></path><path d="M608 213L593 131L488 197Z" fill="#1a4c6a" stroke="#1a4c6a"></path><path d="M407 0L422 75L483 0Z" fill="#091f2e" stroke="#091f2e"></path><path d="M468 116L422 75L421 217Z" fill="#2da3dd" stroke="#2da3dd"></path><path d="M167 504L205 600L281 600Z" fill="#00101c" stroke="#00101c"></path><path d="M164 404L115 510L167 504Z" fill="#2a91c5" stroke="#2a91c5"></path><path d="M167 504L115 510L205 600Z" fill="#1f5c80" stroke="#1f5c80"></path><path d="M166 272L113 391L164 404Z" fill="#1a4c6a" stroke="#1a4c6a"></path><path d="M126 262L113 391L166 272Z" fill="#091f2e" stroke="#091f2e"></path><path d="M667 268L690 204L608 213Z" fill="#236d96" stroke="#236d96"></path><path d="M815 278L690 204L667 268Z" fill="#0f2d41" stroke="#0f2d41"></path><path d="M195 204L126 262L166 272Z" fill="#2a91c5" stroke="#2a91c5"></path><path d="M621 600L679 600L598 487Z" fill="#0f2d41" stroke="#0f2d41"></path><path d="M113 391L115 510L164 404Z" fill="#236d96" stroke="#236d96"></path><path d="M103 130L118 188L195 204Z" fill="#00101c" stroke="#00101c"></path><path d="M195 204L118 188L126 262Z" fill="#1f5c80" stroke="#1f5c80"></path><path d="M0 311L0 380L113 391Z" fill="#2eb6f5" stroke="#2eb6f5"></path><path d="M189 63L195 204L297 122Z" fill="#1a4c6a" stroke="#1a4c6a"></path><path d="M483 0L422 75L468 116Z" fill="#236d96" stroke="#236d96"></path><path d="M422 75L278 0L297 122Z" fill="#00101c" stroke="#00101c"></path><path d="M593 131L483 0L468 116Z" fill="#091f2e" stroke="#091f2e"></path><path d="M597 0L483 0L593 131Z" fill="#091f2e" stroke="#091f2e"></path><path d="M278 0L189 63L297 122Z" fill="#2a91c5" stroke="#2a91c5"></path><path d="M679 600L801 508L665 465Z" fill="#00101c" stroke="#00101c"></path><path d="M697 429L815 278L667 268Z" fill="#277fad" stroke="#277fad"></path><path d="M831 383L815 278L697 429Z" fill="#153c55" stroke="#153c55"></path><path d="M690 204L708 81L593 131Z" fill="#0f2d41" stroke="#0f2d41"></path><path d="M801 508L831 383L697 429Z" fill="#2eb6f5" stroke="#2eb6f5"></path><path d="M679 600L767 600L801 508Z" fill="#2da3dd" stroke="#2da3dd"></path><path d="M407 0L278 0L422 75Z" fill="#2a91c5" stroke="#2a91c5"></path><path d="M189 63L103 130L195 204Z" fill="#091f2e" stroke="#091f2e"></path><path d="M0 311L113 391L126 262Z" fill="#1a4c6a" stroke="#1a4c6a"></path><path d="M0 532L79 600L115 510Z" fill="#1a4c6a" stroke="#1a4c6a"></path><path d="M792 123L708 81L690 204Z" fill="#277fad" stroke="#277fad"></path><path d="M0 380L115 510L113 391Z" fill="#1f5c80" stroke="#1f5c80"></path><path d="M115 510L79 600L205 600Z" fill="#00101c" stroke="#00101c"></path><path d="M708 81L597 0L593 131Z" fill="#153c55" stroke="#153c55"></path><path d="M0 311L126 262L0 223Z" fill="#236d96" stroke="#236d96"></path><path d="M0 223L126 262L118 188Z" fill="#277fad" stroke="#277fad"></path><path d="M815 278L822 187L690 204Z" fill="#1a4c6a" stroke="#1a4c6a"></path><path d="M900 222L822 187L815 278Z" fill="#153c55" stroke="#153c55"></path><path d="M278 0L201 0L189 63Z" fill="#277fad" stroke="#277fad"></path><path d="M189 63L71 0L103 130Z" fill="#091f2e" stroke="#091f2e"></path><path d="M822 187L792 123L690 204Z" fill="#2da3dd" stroke="#2da3dd"></path><path d="M708 81L682 0L597 0Z" fill="#236d96" stroke="#236d96"></path><path d="M0 380L0 532L115 510Z" fill="#0f2d41" stroke="#0f2d41"></path><path d="M0 68L0 223L103 130Z" fill="#236d96" stroke="#236d96"></path><path d="M103 130L0 223L118 188Z" fill="#153c55" stroke="#153c55"></path><path d="M780 0L682 0L708 81Z" fill="#277fad" stroke="#277fad"></path><path d="M801 508L900 412L831 383Z" fill="#1f5c80" stroke="#1f5c80"></path><path d="M831 383L900 284L815 278Z" fill="#2eb6f5" stroke="#2eb6f5"></path><path d="M900 533L900 412L801 508Z" fill="#1a4c6a" stroke="#1a4c6a"></path><path d="M0 532L0 600L79 600Z" fill="#0f2d41" stroke="#0f2d41"></path><path d="M900 412L900 284L831 383Z" fill="#1a4c6a" stroke="#1a4c6a"></path><path d="M822 187L900 138L792 123Z" fill="#2a91c5" stroke="#2a91c5"></path><path d="M900 600L900 533L801 508Z" fill="#2eb6f5" stroke="#2eb6f5"></path><path d="M900 284L900 222L815 278Z" fill="#1f5c80" stroke="#1f5c80"></path><path d="M792 123L780 0L708 81Z" fill="#236d96" stroke="#236d96"></path><path d="M900 0L780 0L792 123Z" fill="#1a4c6a" stroke="#1a4c6a"></path><path d="M201 0L71 0L189 63Z" fill="#277fad" stroke="#277fad"></path><path d="M767 600L900 600L801 508Z" fill="#2eb6f5" stroke="#2eb6f5"></path><path d="M71 0L0 68L103 130Z" fill="#2a91c5" stroke="#2a91c5"></path><path d="M900 222L900 138L822 187Z" fill="#153c55" stroke="#153c55"></path><path d="M71 0L0 0L0 68Z" fill="#2eb6f5" stroke="#2eb6f5"></path><path d="M900 138L900 0L792 123Z" fill="#1f5c80" stroke="#1f5c80"></path></g></svg>