<svg id="visual" viewBox="0 0 960 540" width="960" height="540" xmlns="http://www.w3.org/2000/svg" xmlns:xlink="http://www.w3.org/1999/xlink" version="1.1"><rect x="0" y="0" width="960" height="540" fill="#ffffff"></rect><path d="M0 50L26.7 68.3C53.3 86.7 106.7 123.3 160 127.2C213.3 131 266.7 102 320 86.5C373.3 71 426.7 69 480 89C533.3 109 586.7 151 640 155.7C693.3 160.3 746.7 127.7 800 116.2C853.3 104.7 906.7 114.3 933.3 119.2L960 124L960 0L933.3 0C906.7 0 853.3 0 800 0C746.7 0 693.3 0 640 0C586.7 0 533.3 0 480 0C426.7 0 373.3 0 320 0C266.7 0 213.3 0 160 0C106.7 0 53.3 0 26.7 0L0 0Z" fill="#0066FF" stroke-linecap="round" stroke-linejoin="miter"></path></svg>